<svg width="463" height="900" viewBox="0 0 463 900" fill="none" xmlns="http://www.w3.org/2000/svg">
<g filter="url(#filter0_d_227_793)">
<g clip-path="url(#clip0_227_793)">
<rect x="44" y="4" width="375" height="812" rx="40" fill="white"/>
<rect opacity="0.35" x="380.833" y="21.8333" width="21" height="10.3333" rx="2.16667" stroke="white"/>
<path opacity="0.4" d="M403.333 25V29C404.138 28.6612 404.661 27.8731 404.661 27C404.661 26.1269 404.138 25.3388 403.333 25Z" fill="white"/>
<rect x="382.333" y="23.3333" width="18" height="7.33333" rx="1.33333" fill="white"/>
<path fill-rule="evenodd" clip-rule="evenodd" d="M367.667 23.6152C369.892 23.6153 372.031 24.4694 373.644 26.001C373.765 26.1192 373.959 26.1177 374.079 25.9976L375.239 24.8273C375.3 24.7664 375.334 24.6839 375.333 24.598C375.333 24.5122 375.298 24.4301 375.237 24.3699C371.005 20.3176 364.329 20.3176 360.097 24.3699C360.035 24.43 360.001 24.5121 360 24.598C359.999 24.6838 360.033 24.7663 360.094 24.8273L361.255 25.9976C361.374 26.1179 361.568 26.1194 361.69 26.001C363.302 24.4693 365.442 23.6152 367.667 23.6152ZM367.667 27.4227C368.889 27.4227 370.068 27.8766 370.974 28.6964C371.097 28.8127 371.29 28.8102 371.409 28.6907L372.569 27.5204C372.63 27.459 372.663 27.3757 372.663 27.2892C372.662 27.2027 372.626 27.1201 372.564 27.0599C369.805 24.4955 365.532 24.4955 362.773 27.0599C362.71 27.1201 362.675 27.2027 362.674 27.2893C362.673 27.3758 362.707 27.4591 362.768 27.5204L363.927 28.6907C364.047 28.8102 364.24 28.8127 364.362 28.6964C365.268 27.8772 366.446 27.4233 367.667 27.4227ZM369.989 29.9846C369.991 30.0714 369.957 30.155 369.895 30.2158L367.89 32.2378C367.831 32.2972 367.751 32.3307 367.667 32.3307C367.583 32.3307 367.503 32.2972 367.445 32.2378L365.439 30.2158C365.377 30.155 365.343 30.0713 365.345 29.9845C365.347 29.8977 365.384 29.8156 365.449 29.7574C366.729 28.6751 368.605 28.6751 369.886 29.7574C369.95 29.8156 369.988 29.8978 369.989 29.9846Z" fill="white"/>
<path d="M339 28.3334H340C340.552 28.3334 341 28.7811 341 29.3334V31.3334C341 31.8857 340.552 32.3334 340 32.3334H339C338.448 32.3334 338 31.8857 338 31.3334V29.3334C338 28.7811 338.448 28.3334 339 28.3334Z" fill="white"/>
<path d="M343.667 26.3334H344.667C345.219 26.3334 345.667 26.7811 345.667 27.3334V31.3334C345.667 31.8857 345.219 32.3334 344.667 32.3334H343.667C343.114 32.3334 342.667 31.8857 342.667 31.3334V27.3334C342.667 26.7811 343.114 26.3334 343.667 26.3334Z" fill="white"/>
<path d="M348.333 24H349.333C349.886 24 350.333 24.4477 350.333 25V31.3333C350.333 31.8856 349.886 32.3333 349.333 32.3333H348.333C347.781 32.3333 347.333 31.8856 347.333 31.3333V25C347.333 24.4477 347.781 24 348.333 24Z" fill="white"/>
<path d="M353 21.6667H354C354.552 21.6667 355 22.1144 355 22.6667V31.3334C355 31.8856 354.552 32.3334 354 32.3334H353C352.448 32.3334 352 31.8856 352 31.3334V22.6667C352 22.1144 352.448 21.6667 353 21.6667V21.6667Z" fill="white"/>
<path d="M81.5149 32H83.4046V21.4312H81.5223L78.761 23.3721V25.1519L81.3904 23.2915H81.5149V32ZM87.4039 25.1519C88.0777 25.1519 88.5685 24.6392 88.5685 23.9946C88.5685 23.3428 88.0777 22.8374 87.4039 22.8374C86.7374 22.8374 86.2394 23.3428 86.2394 23.9946C86.2394 24.6392 86.7374 25.1519 87.4039 25.1519ZM87.4039 30.5864C88.0777 30.5864 88.5685 30.0811 88.5685 29.4292C88.5685 28.7773 88.0777 28.272 87.4039 28.272C86.7374 28.272 86.2394 28.7773 86.2394 29.4292C86.2394 30.0811 86.7374 30.5864 87.4039 30.5864ZM90.7367 32H98.0756V30.4326H93.2929V30.2788L95.4096 28.228C97.3358 26.375 97.9145 25.4229 97.9145 24.2217V24.1997C97.9145 22.4199 96.435 21.1675 94.3769 21.1675C92.1723 21.1675 90.6342 22.5444 90.6342 24.5146L90.6415 24.5366L92.3993 24.5439L92.4066 24.5146C92.4066 23.4233 93.161 22.6836 94.2816 22.6836C95.3803 22.6836 96.0468 23.3867 96.0468 24.3608V24.3828C96.0468 25.1958 95.6439 25.7305 94.2084 27.1807L90.7367 30.7256V32ZM102.456 32H104.345V21.4312H102.463L99.7019 23.3721V25.1519L102.331 23.2915H102.456V32Z" fill="white"/>
<rect x="165" y="803" width="134" height="5" rx="2.5" fill="white"/>
<rect x="42" y="4" width="377" height="93" fill="#C2C3CE"/>
<rect x="181" y="44" width="101" height="29" fill="#A9AFBD"/>
<rect x="64" y="58" width="42" height="15" fill="#A9AFBD"/>
<g opacity="0.3">
<rect x="64" y="107" width="335" height="675" fill="#C2C4CF"/>
<rect x="64" y="107" width="335" height="675" fill="url(#paint0_linear_227_793)" fill-opacity="0.41"/>
</g>
<rect opacity="0.35" x="380.833" y="21.8333" width="21" height="10.3333" rx="2.16667" stroke="white"/>
<path opacity="0.4" d="M403.333 25V29C404.138 28.6612 404.661 27.8731 404.661 27C404.661 26.1269 404.138 25.3388 403.333 25Z" fill="white"/>
<rect x="382.333" y="23.3333" width="18" height="7.33333" rx="1.33333" fill="white"/>
<path fill-rule="evenodd" clip-rule="evenodd" d="M367.667 23.6152C369.892 23.6153 372.031 24.4694 373.644 26.001C373.765 26.1192 373.959 26.1177 374.079 25.9976L375.239 24.8273C375.3 24.7664 375.334 24.6839 375.333 24.598C375.333 24.5122 375.298 24.4301 375.237 24.3699C371.005 20.3176 364.329 20.3176 360.097 24.3699C360.035 24.43 360.001 24.5121 360 24.598C359.999 24.6838 360.033 24.7663 360.094 24.8273L361.255 25.9976C361.374 26.1179 361.568 26.1194 361.69 26.001C363.302 24.4693 365.442 23.6152 367.667 23.6152ZM367.667 27.4227C368.889 27.4227 370.068 27.8766 370.974 28.6964C371.097 28.8127 371.29 28.8102 371.409 28.6907L372.569 27.5204C372.63 27.459 372.663 27.3757 372.663 27.2892C372.662 27.2027 372.626 27.1201 372.564 27.0599C369.805 24.4955 365.532 24.4955 362.773 27.0599C362.71 27.1201 362.675 27.2027 362.674 27.2893C362.673 27.3758 362.707 27.4591 362.768 27.5204L363.927 28.6907C364.047 28.8102 364.24 28.8127 364.362 28.6964C365.268 27.8772 366.446 27.4233 367.667 27.4227ZM369.989 29.9846C369.991 30.0714 369.957 30.155 369.895 30.2158L367.89 32.2378C367.831 32.2972 367.751 32.3307 367.667 32.3307C367.583 32.3307 367.503 32.2972 367.445 32.2378L365.439 30.2158C365.377 30.155 365.343 30.0713 365.345 29.9845C365.347 29.8977 365.384 29.8156 365.449 29.7574C366.729 28.6751 368.605 28.6751 369.886 29.7574C369.95 29.8156 369.988 29.8978 369.989 29.9846Z" fill="white"/>
<path d="M339 28.3334H340C340.552 28.3334 341 28.7811 341 29.3334V31.3334C341 31.8857 340.552 32.3334 340 32.3334H339C338.448 32.3334 338 31.8857 338 31.3334V29.3334C338 28.7811 338.448 28.3334 339 28.3334Z" fill="white"/>
<path d="M343.667 26.3334H344.667C345.219 26.3334 345.667 26.7811 345.667 27.3334V31.3334C345.667 31.8857 345.219 32.3334 344.667 32.3334H343.667C343.114 32.3334 342.667 31.8857 342.667 31.3334V27.3334C342.667 26.7811 343.114 26.3334 343.667 26.3334Z" fill="white"/>
<path d="M348.333 24H349.333C349.886 24 350.333 24.4477 350.333 25V31.3333C350.333 31.8856 349.886 32.3333 349.333 32.3333H348.333C347.781 32.3333 347.333 31.8856 347.333 31.3333V25C347.333 24.4477 347.781 24 348.333 24Z" fill="white"/>
<path d="M353 21.6667H354C354.552 21.6667 355 22.1144 355 22.6667V31.3334C355 31.8856 354.552 32.3334 354 32.3334H353C352.448 32.3334 352 31.8856 352 31.3334V22.6667C352 22.1144 352.448 21.6667 353 21.6667V21.6667Z" fill="white"/>
<rect x="165" y="803" width="134" height="5" rx="2.5" fill="white"/>
<path fill-rule="evenodd" clip-rule="evenodd" d="M186.827 748.503C183.809 740.268 176.941 733 168.17 733H42V800C42 808.837 49.1634 816 58 816H403C411.837 816 419 808.837 419 800V733H292.83C284.059 733 277.191 740.268 274.173 748.503C267.65 766.3 250.558 779 230.5 779C210.442 779 193.35 766.3 186.827 748.503Z" fill="#C2C3CE"/>
</g>
</g>
<defs>
<filter id="filter0_d_227_793" x="0" y="0" width="463" height="900" filterUnits="userSpaceOnUse" color-interpolation-filters="sRGB">
<feFlood flood-opacity="0" result="BackgroundImageFix"/>
<feColorMatrix in="SourceAlpha" type="matrix" values="0 0 0 0 0 0 0 0 0 0 0 0 0 0 0 0 0 0 127 0" result="hardAlpha"/>
<feOffset dy="40"/>
<feGaussianBlur stdDeviation="22"/>
<feColorMatrix type="matrix" values="0 0 0 0 0.026 0 0 0 0 0 0 0 0 0 0.325 0 0 0 0.1 0"/>
<feBlend mode="normal" in2="BackgroundImageFix" result="effect1_dropShadow_227_793"/>
<feBlend mode="normal" in="SourceGraphic" in2="effect1_dropShadow_227_793" result="shape"/>
</filter>
<linearGradient id="paint0_linear_227_793" x1="231.5" y1="107" x2="231.5" y2="782" gradientUnits="userSpaceOnUse">
<stop stop-color="white"/>
<stop offset="1" stop-color="white" stop-opacity="0"/>
</linearGradient>
<clipPath id="clip0_227_793">
<rect x="44" y="4" width="375" height="812" rx="40" fill="white"/>
</clipPath>
</defs>
</svg>
